<svg width="512" height="512" viewBox="0 0 512 512" fill="none" xmlns="http://www.w3.org/2000/svg">
  <rect width="512" height="512" rx="112" fill="white"/>
  <path d="M256 365C223 322 174 306 105 326V171C167 153 218 167 256 211V365Z" stroke="#4f6740" stroke-width="22" stroke-linejoin="round"/>
  <path d="M256 365C289 322 338 306 407 326V171C345 153 294 167 256 211V365Z" stroke="#4f6740" stroke-width="22" stroke-linejoin="round"/>
  <path d="M256 211V376" stroke="#4f6740" stroke-width="12" stroke-linecap="round"/>
  <path d="M256 118V210" stroke="#4f6740" stroke-width="20" stroke-linecap="round"/>
  <path d="M221 159H291" stroke="#4f6740" stroke-width="20" stroke-linecap="round"/>
  <path d="M151 123L179 154" stroke="#4f6740" stroke-width="13" stroke-linecap="round"/>
  <path d="M361 123L333 154" stroke="#4f6740" stroke-width="13" stroke-linecap="round"/>
  <path d="M256 78V98" stroke="#4f6740" stroke-width="13" stroke-linecap="round"/>
  <path d="M191 95L207 126" stroke="#4f6740" stroke-width="13" stroke-linecap="round"/>
  <path d="M321 95L305 126" stroke="#4f6740" stroke-width="13" stroke-linecap="round"/>
</svg>